HIERARCHY
ROOT Hips
{
  OFFSET -4.41651 77.0171 -0.176975
  CHANNELS 6 Xposition Yposition Zposition Zrotation Xrotation Yrotation
  JOINT Spine
  {
    OFFSET 0 8.5038 -4.6017
    CHANNELS 6 Xposition Yposition Zposition Zrotation Xrotation Yrotation
    JOINT Spine1
    {
      OFFSET 0 7.7603 0.4054
      CHANNELS 6 Xposition Yposition Zposition Zrotation Xrotation Yrotation
      JOINT Spine2
      {
        OFFSET 0 9.6025 -2.1374
        CHANNELS 6 Xposition Yposition Zposition Zrotation Xrotation Yrotation
        JOINT Neck
        {
          OFFSET 0 21.6389 -0.45
          CHANNELS 6 Xposition Yposition Zposition Zrotation Xrotation Yrotation
          JOINT Head
          {
            OFFSET -0.0001 12.2197 3.3238
            CHANNELS 6 Xposition Yposition Zposition Zrotation Xrotation Yrotation
            End Site
            {
              OFFSET 0.0001 17.074 0.5097
            }
          }
        }
        JOINT LeftShoulder
        {
          OFFSET 2.1846 20.8826 7.1545
          CHANNELS 6 Xposition Yposition Zposition Zrotation Xrotation Yrotation
          JOINT LeftArm
          {
            OFFSET 12.7628 2.9953 -4.8467
            CHANNELS 6 Xposition Yposition Zposition Zrotation Xrotation Yrotation
            JOINT LeftForeArm
            {
              OFFSET 27.1108 -0.0961 -0.2349
              CHANNELS 6 Xposition Yposition Zposition Zrotation Xrotation Yrotation
              JOINT LeftHand
              {
                OFFSET 22.6162 0.0656 -0.1355
                CHANNELS 6 Xposition Yposition Zposition Zrotation Xrotation Yrotation
                JOINT LeftHandIndex1
                {
                  OFFSET 8.7654 0.7666 2.4346
                  CHANNELS 6 Xposition Yposition Zposition Zrotation Xrotation Yrotation
                  JOINT LeftHandIndex2
                  {
                    OFFSET 3.2787 -0.7995 0.5777
                    CHANNELS 6 Xposition Yposition Zposition Zrotation Xrotation Yrotation
                    JOINT LeftHandIndex3
                    {
                      OFFSET 2.2383 -0.5459 0.3945
                      CHANNELS 6 Xposition Yposition Zposition Zrotation Xrotation Yrotation
                      End Site
                      {
                        OFFSET 1.5927 -0.4755 0.2584
                      }
                    }
                  }
                }
                JOINT LeftHandMiddle1
                {
                  OFFSET 8.8962 0.8853 0.212
                  CHANNELS 6 Xposition Yposition Zposition Zrotation Xrotation Yrotation
                  JOINT LeftHandMiddle2
                  {
                    OFFSET 4.0539 0.0113 -0.0239
                    CHANNELS 6 Xposition Yposition Zposition Zrotation Xrotation Yrotation
                    JOINT LeftHandMiddle3
                    {
                      OFFSET 2.2471 0.0069 -0.0137
                      CHANNELS 6 Xposition Yposition Zposition Zrotation Xrotation Yrotation
                      End Site
                      {
                        OFFSET 2.0183 -0.1425 0.0027
                      }
                    }
                  }
                }
                JOINT LeftHandRing1
                {
                  OFFSET 8.431 0.5908 -1.9946
                  CHANNELS 6 Xposition Yposition Zposition Zrotation Xrotation Yrotation
                  JOINT LeftHandRing2
                  {
                    OFFSET 3.6785 -0.1862 -0.2303
                    CHANNELS 6 Xposition Yposition Zposition Zrotation Xrotation Yrotation
                    JOINT LeftHandRing3
                    {
                      OFFSET 2.0962 -0.1055 -0.1317
                      CHANNELS 6 Xposition Yposition Zposition Zrotation Xrotation Yrotation
                      End Site
                      {
                        OFFSET 1.8534 -0.2279 -0.0876
                      }
                    }
                  }
                }
                JOINT LeftHandPinky1
                {
                  OFFSET 7.8236 -0.5945 -3.4447
                  CHANNELS 6 Xposition Yposition Zposition Zrotation Xrotation Yrotation
                  JOINT LeftHandPinky2
                  {
                    OFFSET 2.2626 -0.4719 -0.6246
                    CHANNELS 6 Xposition Yposition Zposition Zrotation Xrotation Yrotation
                    JOINT LeftHandPinky3
                    {
                      OFFSET 1.6592 -0.3455 -0.4583
                      CHANNELS 6 Xposition Yposition Zposition Zrotation Xrotation Yrotation
                      End Site
                      {
                        OFFSET 1.4727 -0.4046 -0.3379
                      }
                    }
                  }
                }
                JOINT LeftHandThumb1
                {
                  OFFSET 1.8133 -1.3724 1.3746
                  CHANNELS 6 Xposition Yposition Zposition Zrotation Xrotation Yrotation
                  JOINT LeftHandThumb2
                  {
                    OFFSET 3.376 -1.1087 2.5453
                    CHANNELS 6 Xposition Yposition Zposition Zrotation Xrotation Yrotation
                    JOINT LeftHandThumb3
                    {
                      OFFSET 2.223 -0.7955 1.6016
                      CHANNELS 6 Xposition Yposition Zposition Zrotation Xrotation Yrotation
                      End Site
                      {
                        OFFSET 1.6347 -0.5627 1.1194
                      }
                    }
                  }
                }
              }
            }
          }
        }
        JOINT RightShoulder
        {
          OFFSET -2.1846 20.8826 7.1545
          CHANNELS 6 Xposition Yposition Zposition Zrotation Xrotation Yrotation
          JOINT RightArm
          {
            OFFSET -12.7651 2.9958 -4.8475
            CHANNELS 6 Xposition Yposition Zposition Zrotation Xrotation Yrotation
            JOINT RightForeArm
            {
              OFFSET -27.1108 -0.0961 -0.2349
              CHANNELS 6 Xposition Yposition Zposition Zrotation Xrotation Yrotation
              JOINT RightHand
              {
                OFFSET -22.6162 0.0656 -0.1355
                CHANNELS 6 Xposition Yposition Zposition Zrotation Xrotation Yrotation
                JOINT RightHandIndex1
                {
                  OFFSET -8.7654 0.7667 2.4346
                  CHANNELS 6 Xposition Yposition Zposition Zrotation Xrotation Yrotation
                  JOINT RightHandIndex2
                  {
                    OFFSET -3.2787 -0.7995 0.5777
                    CHANNELS 6 Xposition Yposition Zposition Zrotation Xrotation Yrotation
                    JOINT RightHandIndex3
                    {
                      OFFSET -2.2383 -0.5461 0.3945
                      CHANNELS 6 Xposition Yposition Zposition Zrotation Xrotation Yrotation
                      End Site
                      {
                        OFFSET -1.5928 -0.4755 0.2584
                      }
                    }
                  }
                }
                JOINT RightHandMiddle1
                {
                  OFFSET -8.8962 0.8853 0.212
                  CHANNELS 6 Xposition Yposition Zposition Zrotation Xrotation Yrotation
                  JOINT RightHandMiddle2
                  {
                    OFFSET -4.0539 0.0113 -0.024
                    CHANNELS 6 Xposition Yposition Zposition Zrotation Xrotation Yrotation
                    JOINT RightHandMiddle3
                    {
                      OFFSET -2.2471 0.0069 -0.0137
                      CHANNELS 6 Xposition Yposition Zposition Zrotation Xrotation Yrotation
                      End Site
                      {
                        OFFSET -2.0183 -0.1425 0.0027
                      }
                    }
                  }
                }
                JOINT RightHandRing1
                {
                  OFFSET -8.431 0.5908 -1.9946
                  CHANNELS 6 Xposition Yposition Zposition Zrotation Xrotation Yrotation
                  JOINT RightHandRing2
                  {
                    OFFSET -3.6785 -0.1862 -0.2303
                    CHANNELS 6 Xposition Yposition Zposition Zrotation Xrotation Yrotation
                    JOINT RightHandRing3
                    {
                      OFFSET -2.0962 -0.1055 -0.1317
                      CHANNELS 6 Xposition Yposition Zposition Zrotation Xrotation Yrotation
                      End Site
                      {
                        OFFSET -1.8534 -0.2279 -0.0876
                      }
                    }
                  }
                }
                JOINT RightHandPinky1
                {
                  OFFSET -7.8236 -0.5945 -3.4447
                  CHANNELS 6 Xposition Yposition Zposition Zrotation Xrotation Yrotation
                  JOINT RightHandPinky2
                  {
                    OFFSET -2.2626 -0.4718 -0.624601
                    CHANNELS 6 Xposition Yposition Zposition Zrotation Xrotation Yrotation
                    JOINT RightHandPinky3
                    {
                      OFFSET -1.6592 -0.3454 -0.4583
                      CHANNELS 6 Xposition Yposition Zposition Zrotation Xrotation Yrotation
                      End Site
                      {
                        OFFSET -1.4727 -0.4046 -0.3379
                      }
                    }
                  }
                }
                JOINT RightHandThumb1
                {
                  OFFSET -1.8133 -1.3723 1.3745
                  CHANNELS 6 Xposition Yposition Zposition Zrotation Xrotation Yrotation
                  JOINT RightHandThumb2
                  {
                    OFFSET -3.3759 -1.1088 2.5454
                    CHANNELS 6 Xposition Yposition Zposition Zrotation Xrotation Yrotation
                    JOINT RightHandThumb3
                    {
                      OFFSET -2.223 -0.7954 1.6016
                      CHANNELS 6 Xposition Yposition Zposition Zrotation Xrotation Yrotation
                      End Site
                      {
                        OFFSET -1.6347 -0.5627 1.1194
                      }
                    }
                  }
                }
              }
            }
          }
        }
      }
    }
  }
  JOINT RightUpLeg
  {
    OFFSET -9.0969 3.8439 -0.7498
    CHANNELS 6 Xposition Yposition Zposition Zrotation Xrotation Yrotation
    JOINT RightLeg
    {
      OFFSET -0.7279 -39.5674 0
      CHANNELS 6 Xposition Yposition Zposition Zrotation Xrotation Yrotation
      JOINT RightFoot
      {
        OFFSET 0 -38.8528 0
        CHANNELS 6 Xposition Yposition Zposition Zrotation Xrotation Yrotation
        JOINT RightToeBase
        {
          OFFSET 0 -4.2703 8.9297
          CHANNELS 6 Xposition Yposition Zposition Zrotation Xrotation Yrotation
          End Site
          {
            OFFSET 0 0 5.9906
          }
        }
      }
    }
  }
  JOINT LeftUpLeg
  {
    OFFSET 9.0968 3.8442 -0.7498
    CHANNELS 6 Xposition Yposition Zposition Zrotation Xrotation Yrotation
    JOINT LeftLeg
    {
      OFFSET 0.728 -39.5676 0
      CHANNELS 6 Xposition Yposition Zposition Zrotation Xrotation Yrotation
      JOINT LeftFoot
      {
        OFFSET 0 -38.8528 0
        CHANNELS 6 Xposition Yposition Zposition Zrotation Xrotation Yrotation
        JOINT LeftToeBase
        {
          OFFSET 0 -4.2703 8.9297
          CHANNELS 6 Xposition Yposition Zposition Zrotation Xrotation Yrotation
          End Site
          {
            OFFSET 0 0 5.9906
          }
        }
      }
    }
  }
}
MOTION
Frames:	4
Frame Time:	0.0333333
-4.12291 64.6502 -4.32583 -19.7502 0.468353 69.4794 -8.88178e-016 8.5038 -4.6017 0.124801 5.64965 2.98641 8.88178e-016 7.7603 0.4054 -0.0483964 11.2981 6.00455 8.88179e-016 9.6025 -2.1374 -0.0484064 11.2981 6.00459 0 21.6389 -0.45 3.29877 -9.63064 1.8097 -0.0001 12.2197 3.3238 -0.64343 -21.7212 3.38539 2.1846 20.8826 7.1545 -2.31668 -2.91544 -10.8187 12.7628 2.9953 -4.8467 -45.6023 -17.9446 -13.9398 27.1108 -0.0961 -0.2349 5.98843 4.4637 -77.5415 22.6162 0.0656 -0.1355 59.8478 -4.6897 22.4042 8.7654 0.7666 2.4346 -27.9781 -0.070549 15.4082 3.2787 -0.7995 0.5777 -25.7525 7.70763 -3.22427 2.2383 -0.5459 0.3945 -20.5474 5.89823 -6.60513 8.8962 0.8853 0.212 -17.5359 -1.48488 -1.18416 4.0539 0.0113 -0.0239 -46.1812 -1.10521 -12.5238 2.2471 0.0069 -0.0137 -27.9985 -1.39563 -8.59929 8.431 0.5908 -1.9946 -10.5683 -8.27927 -14.9726 3.6785 -0.1862 -0.2303 -46.8186 -10.3855 -14.4398 2.0962 -0.1055 -0.1317 -31.6586 -7.48929 -6.61876 7.8236 -0.5945 -3.4447 -10.65 -21.9103 -25.575 2.2626 -0.4719 -0.6246 -46.1084 -17.8767 -10.6616 1.6592 -0.3455 -0.4583 -27.0548 -11.9369 -5.84055 1.8133 -1.3724 1.3746 -16.331 18.0805 8.06748 3.376 -1.1087 2.5453 -0.425701 0.410391 0.56077 2.223 -0.7955 1.6016 -5.2237 4.13988 6.47805 -2.1846 20.8826 7.1545 -2.76272 -2.86624 8.44358 -12.7651 2.9958 -4.8475 51.2559 -14.5962 27.3642 -27.1108 -0.0961 -0.2349 -8.13817 -1.70793 75.1299 -22.6162 0.0656 -0.1355 -51.5258 -0.799217 -8.60582 -8.7654 0.7667 2.4346 26.6077 0.139905 -17.7154 -3.2787 -0.7995 0.5777 26.1836 7.30517 1.17011 -2.2383 -0.5461 0.3945 21.2102 5.57768 4.90405 -8.8962 0.8853 0.212 17.5357 -1.62479 -0.361462 -4.0539 0.0113 -0.024 47.0143 -2.59305 8.8 -2.2471 0.0069 -0.0137 28.5842 -1.98829 6.20032 -8.431 0.5908 -1.9946 11.7508 -8.51265 13.9755 -3.6785 -0.1862 -0.2303 47.2496 -11.9193 10.5853 -2.0962 -0.1055 -0.1317 31.7818 -8.16017 3.79977 -7.8236 -0.5945 -3.4447 12.6751 -22.0934 24.8482 -2.2626 -0.4718 -0.624601 45.7126 -19.3036 6.58949 -1.6592 -0.3454 -0.4583 27.0102 -12.4278 3.28335 -1.8133 -1.3723 1.3745 15.8545 18.2423 -8.81063 -3.3759 -1.1088 2.5454 0.372497 0.425412 -0.581551 -2.223 -0.7954 1.6016 4.6644 4.33908 -6.74951 -9.0969 3.8439 -0.7498 -15.4946 -31.4192 4.60013 -0.7279 -39.5674 1.77636e-015 49.6025 79.3165 -40.8828 0 -38.8528 0 5.14923 -9.81469 4.93553 0 -4.2703 8.9297 25.0958 -20.1571 1.14962 9.0968 3.8442 -0.7498 -5.79719 -41.294 -3.13128 0.728 -39.5676 0 -32.7855 75.0193 23.8372 -1.77636e-015 -38.8528 0 31.9136 -43.7758 11.651 8.88179e-016 -4.2703 8.9297 1.01953 -4.91775 0.104652 
-4.20744 65.344 -4.20333 -19.0678 0.0968504 69.3418 -2.66454e-015 8.5038 -4.6017 0.187873 5.71311 2.94845 8.88178e-016 7.7603 0.4054 0.0790303 11.4283 5.92249 0 9.6025 -2.1374 0.0790246 11.4283 5.92252 1.77636e-015 21.6389 -0.45 3.509 -9.03445 1.93106 -0.0001 12.2197 3.3238 -0.630458 -21.8777 3.45071 2.1846 20.8826 7.1545 -2.63417 -2.75333 -11.0361 12.7628 2.9953 -4.8467 -46.0317 -18.2246 -15.2896 27.1108 -0.0961 -0.2349 5.77089 5.06131 -74.3529 22.6162 0.0656 -0.1355 60.0131 -5.57481 21.2831 8.76541 0.7666 2.4346 -27.9407 -0.170669 15.1837 3.2787 -0.7995 0.5777 -25.7598 7.70907 -3.26584 2.2383 -0.5459 0.3945 -21.1407 6.13152 -6.64647 8.89621 0.8853 0.212 -17.5916 -1.65646 -1.37958 4.0539 0.0113 -0.0239 -46.1396 -1.11194 -12.5103 2.2471 0.0069 -0.0137 -28.4768 -1.37427 -8.77731 8.43101 0.5908 -1.9946 -10.7006 -8.43387 -15.1517 3.6785 -0.1862 -0.2303 -46.7576 -10.3934 -14.4023 2.0962 -0.1055 -0.1317 -31.959 -7.54243 -6.98269 7.8236 -0.5945 -3.4447 -10.8832 -22.072 -25.8041 2.2626 -0.4719 -0.6246 -45.9583 -17.8504 -10.6262 1.6592 -0.3455 -0.4583 -27.3358 -12.1456 -6.23115 1.8133 -1.3724 1.3746 -16.2539 18.0078 7.84496 3.376 -1.1087 2.5453 -0.425702 0.410386 0.560772 2.223 -0.7955 1.6016 -5.36997 4.26284 6.47077 -2.1846 20.8826 7.1545 -2.75059 -3.03796 8.91477 -12.7651 2.9958 -4.8475 51.3029 -13.6479 28.7147 -27.1108 -0.0961 -0.2349 -8.5015 -1.35319 71.4887 -22.6162 0.0656 -0.1355 -52.0119 -1.74691 -7.58954 -8.7654 0.7667 2.4346 26.3537 0.0771485 -17.5355 -3.2787 -0.7995 0.5777 26.448 7.40709 1.22491 -2.2383 -0.5461 0.3945 21.2303 5.55323 5.16784 -8.8962 0.8853 0.212 17.4515 -1.76111 -0.230409 -4.0539 0.0113 -0.024 47.0356 -2.59052 8.80599 -2.2471 0.0069 -0.0137 28.6134 -2.09845 6.59497 -8.431 0.5908 -1.9946 11.7215 -8.67058 14.1061 -3.6785 -0.1862 -0.2303 47.2466 -11.9195 10.5836 -2.0962 -0.1055 -0.1317 31.5246 -8.25591 4.16437 -7.8236 -0.5945 -3.4447 12.7406 -22.3485 25.0903 -2.2626 -0.4718 -0.624601 45.6965 -19.3059 6.59677 -1.6592 -0.3454 -0.4583 26.4661 -12.2929 3.40507 -1.8133 -1.3723 1.3745 15.7541 18.1582 -8.59764 -3.3759 -1.1088 2.5454 0.372498 0.425407 -0.581543 -2.223 -0.7954 1.6016 4.32123 4.05642 -6.88955 -9.0969 3.8439 -0.7498 -14.4869 -36.6755 4.51064 -0.7279 -39.5674 0 67.5504 80.9037 -58.023 0 -38.8528 3.55271e-015 4.26104 -13.2143 4.48044 0 -4.2703 8.9297 18.615 -15.2371 -0.00196613 9.0968 3.8442 -0.7498 -5.57727 -37.6906 -2.37375 0.728 -39.5676 3.55271e-015 -27.2835 72.3801 17.8905 -8.88179e-016 -38.8528 0 32.4912 -43.4914 12.2443 0 -4.2703 8.9297 1.08236 -5.24134 0.122811 
-4.28111 65.9808 -4.06909 -18.3897 -0.258669 69.2329 0 8.5038 -4.6017 0.247949 5.77423 2.91444 -8.88178e-016 7.7603 0.4054 0.200273 11.5536 5.84856 0 9.6025 -2.1374 0.200254 11.5536 5.84861 0 21.6389 -0.45 3.71365 -8.44921 2.04773 -0.0001 12.2197 3.3238 -0.53375 -22.0192 3.5425 2.1846 20.8826 7.1545 -2.87486 -2.59612 -11.2647 12.7628 2.9953 -4.8467 -46.4353 -18.375 -16.6089 27.1108 -0.0961 -0.2349 5.51316 5.54965 -71.1845 22.6162 0.0656 -0.1355 60.1752 -6.43738 20.2057 8.7654 0.7666 2.4346 -27.9045 -0.269037 14.9637 3.2787 -0.7995 0.5777 -25.7671 7.71054 -3.30757 2.2383 -0.5459 0.3945 -21.6063 6.3126 -6.7169 8.8962 0.8853 0.212 -17.6469 -1.82478 -1.57163 4.0539 0.0113 -0.0239 -46.0988 -1.11853 -12.4971 2.2471 0.0069 -0.0137 -28.7941 -1.37081 -8.94255 8.431 0.5908 -1.9946 -10.8309 -8.58518 -15.3278 3.6785 -0.1862 -0.2303 -46.6977 -10.401 -14.3654 2.0962 -0.1055 -0.1317 -32.0793 -7.60043 -7.29443 7.8236 -0.5945 -3.4447 -11.1127 -22.2297 -26.0296 2.2626 -0.4719 -0.6246 -45.8116 -17.8246 -10.5917 1.6592 -0.3455 -0.4583 -27.4003 -12.2693 -6.53799 1.8133 -1.3724 1.3746 -16.1785 17.9361 7.62686 3.376 -1.1087 2.5453 -0.425705 0.410401 0.560757 2.223 -0.7955 1.6016 -5.42801 4.3094 6.49118 -2.1846 20.8826 7.1545 -2.66561 -3.16941 9.41721 -12.7651 2.9958 -4.8475 51.4292 -12.9311 29.9989 -27.1108 -0.0961 -0.2349 -8.85051 -0.965763 68.0266 -22.6162 0.0656 -0.1355 -52.3295 -2.68503 -6.57803 -8.7654 0.7667 2.4346 26.1046 0.0154104 -17.3592 -3.2787 -0.7995 0.5777 26.7072 7.50719 1.27815 -2.2383 -0.5461 0.3945 21.3589 5.5737 5.4083 -8.8962 0.8853 0.212 17.3693 -1.89496 -0.102061 -4.0539 0.0113 -0.024 47.0518 -2.58857 8.81056 -2.2471 0.0069 -0.0137 28.7243 -2.18766 6.94458 -8.431 0.5908 -1.9946 11.6932 -8.82518 14.2338 -3.6785 -0.1862 -0.2303 47.2497 -11.9193 10.5853 -2.0962 -0.1055 -0.1317 31.3753 -8.34305 4.50169 -7.8236 -0.5945 -3.4447 12.8061 -22.5986 25.3287 -2.2626 -0.4718 -0.624601 45.6806 -19.3082 6.60394 -1.6592 -0.3454 -0.4583 26.0394 -12.1959 3.52385 -1.8133 -1.3723 1.3745 15.6558 18.0753 -8.3886 -3.3759 -1.1088 2.5454 0.372501 0.425409 -0.581536 -2.223 -0.7954 1.6016 4.1584 3.9236 -6.97986 -9.0969 3.8439 -0.7498 -13.4364 -41.7069 4.58356 -0.7279 -39.5674 0 86.6478 81.3004 -76.564 0 -38.8528 -3.55271e-015 3.38704 -16.1063 4.09277 0 -4.2703 8.9297 12.4821 -10.3238 -0.551615 9.0968 3.8442 -0.7498 -5.52613 -34.1321 -1.83937 0.728 -39.5676 3.55271e-015 -23.3034 69.6144 13.5977 0 -38.8528 3.55271e-015 32.9741 -43.1999 12.759 1.77636e-015 -4.2703 8.9297 1.14419 -5.55908 0.140999 
-4.3399 66.5614 -3.90936 -17.6733 -0.599425 69.1773 0 8.5038 -4.6017 0.30579 5.83386 2.88945 8.88178e-016 7.7603 0.4054 0.316268 11.6757 5.79285 4.44089e-016 9.6025 -2.1374 0.316264 11.6757 5.79288 1.77636e-015 21.6389 -0.45 3.89429 -7.86178 2.16869 -0.0001 12.2197 3.3238 -0.169946 -22.125 3.71459 2.1846 20.8826 7.1545 -2.88754 -2.43819 -11.5314 12.7628 2.9953 -4.8467 -46.7631 -18.132 -17.9124 27.1108 -0.0961 -0.2349 5.18237 5.76943 -67.8395 22.6162 0.0656 -0.1355 60.4128 -7.2884 19.1744 8.7654 0.7666 2.4346 -27.8682 -0.368479 14.7415 3.2787 -0.7995 0.5777 -25.7752 7.71211 -3.3532 2.2383 -0.5459 0.3945 -21.7297 6.34703 -6.90774 8.8962 0.8853 0.212 -17.7035 -1.99537 -1.76667 4.0539 0.0113 -0.0239 -46.0576 -1.12518 -12.4837 2.2471 0.0069 -0.0137 -28.6509 -1.42484 -9.08102 8.431 0.5908 -1.9946 -10.9634 -8.73794 -15.5066 3.6785 -0.1862 -0.2303 -46.6375 -10.4086 -14.3284 2.0962 -0.1055 -0.1317 -31.6663 -7.67839 -7.46916 7.8236 -0.5945 -3.4447 -11.3457 -22.3883 -26.2584 2.2626 -0.4719 -0.6246 -45.6647 -17.7987 -10.5573 1.6592 -0.3455 -0.4583 -26.8163 -12.1521 -6.61218 1.8133 -1.3724 1.3746 -16.1026 17.863 7.40628 3.376 -1.1087 2.5453 -0.425702 0.410393 0.560781 2.223 -0.7955 1.6016 -5.16995 4.08421 6.58897 -2.1846 20.8826 7.1545 -2.33381 -3.18879 10.1029 -12.7651 2.9958 -4.8475 51.8564 -12.9037 31.1738 -27.1108 -0.0961 -0.2349 -9.21336 -0.501697 64.8554 -22.6162 0.0656 -0.1355 -52.1298 -3.64745 -5.45718 -8.7654 0.7667 2.4346 25.8525 -0.0472417 -17.1811 -3.2787 -0.7995 0.5777 26.9684 7.60836 1.33137 -2.2383 -0.5461 0.3945 21.9195 5.77186 5.58296 -8.8962 0.8853 0.212 17.2865 -2.03033 0.0273712 -4.0539 0.0113 -0.024 47.0501 -2.58877 8.81007 -2.2471 0.0069 -0.0137 29.1758 -2.20524 7.17521 -8.431 0.5908 -1.9946 11.6652 -8.9802 14.3618 -3.6785 -0.1862 -0.2303 47.2743 -11.9178 10.5985 -2.0962 -0.1055 -0.1317 31.6478 -8.40568 4.78981 -7.8236 -0.5945 -3.4447 12.8737 -22.8518 25.5709 -2.2626 -0.4718 -0.624601 45.6661 -19.3103 6.61053 -1.6592 -0.3454 -0.4583 26.0618 -12.2475 3.65107 -1.8133 -1.3723 1.3745 15.5563 17.9906 -8.1764 -3.3759 -1.1088 2.5454 0.372495 0.425404 -0.581557 -2.223 -0.7954 1.6016 4.59258 4.28032 -6.88852 -9.0969 3.8439 -0.7498 -12.2173 -46.5139 4.9667 -0.7279 -39.5674 0 98.7389 80.7263 -88.7865 0 -38.8528 -3.55271e-015 2.54231 -17.7798 4.07278 0 -4.2703 8.9297 5.66117 -4.69873 -0.529341 9.0968 3.8442 -0.7498 -5.78289 -30.4941 -1.74252 0.728 -39.5676 -1.77636e-015 -20.1499 66.6146 10.5233 0 -38.8528 0 33.2467 -42.878 13.1552 0 -4.2703 8.9297 1.20706 -5.88146 0.159792 
